<svg width="48" height="48" viewBox="0 0 1024 1024" xmlns="http://www.w3.org/2000/svg"><path d="M574.557 72.446l-301.337 0c-32.166 0-58.242 26.076-58.242 58.242l0 286.574c0 32.166 26.076 58.242 58.242 58.242l301.337 0c32.166 0 58.242-26.076 58.242-58.242l0-286.574c0-32.166-26.076-58.242-58.242-58.242zM568.18 399.996l-68.099 0-19.81-60.061-104.005 0-19.811 60.061-66.861 0 101.529-275.282 74.289 0 102.768 275.282zM469.127 292.386l-34.668-95.098c-2.477-8.33-4.546-16.268-6.191-23.775l-1.238 0c-0.832 9.189-2.901 17.518-6.191 25.025l-30.955 93.847 79.241 0zM434.016 513.89l-301.337 0c-32.166 0-58.242 26.076-58.242 58.242l0 286.574c0 32.166 26.076 58.242 58.242 58.242l301.337 0c32.166 0 58.242-26.076 58.242-58.242l0-286.574c0-32.166-26.076-58.242-58.242-58.242zM889.822 513.89l-301.337 0c-32.166 0-58.242 26.076-58.242 58.242l0 286.574c0 32.166 26.076 58.242 58.242 58.242l301.337 0c32.166 0 58.242-26.076 58.242-58.242l0-286.574c0-32.166-26.076-58.242-58.242-58.242zM292.774 859.673l-133.721 0 0-275.282 127.53 0c61.077 1.682 93.268 23.364 96.576 65.068 0 32.532-17.761 54.236-53.242 65.066 37.957 8.348 59.431 29.62 64.385 63.815 0 54.235-33.856 81.332-101.529 81.332zM276.679 630.688l-55.716 0 0 65.066 55.716 0c26.407-0.82 40.027-12.512 40.86-35.036-0.833-20.021-14.452-30.031-40.86-30.031zM282.869 742.052l-61.907 0 0 73.826 60.669 0c30.528 0 46.218-12.512 47.051-37.537-2.477-23.345-17.761-35.447-45.811-36.287zM864.868 664.473l-59.431 13.763c-8.261-28.349-27.239-43.364-56.955-45.045-42.098 2.502-64.385 32.123-66.861 88.842 1.644 57.559 23.931 88.02 66.861 91.343 33.837-0.82 53.646-21.273 59.431-61.313l59.431 18.77c-14.045 62.563-53.667 93.847-118.863 93.847-84.194-4.185-128.362-51.713-132.483-142.646 4.119-89.252 48.288-136.39 132.483-141.394 59.431 1.682 98.22 29.62 116.387 83.835z" /></svg>
