<svg width="48" height="48" viewBox="0 0 1024 1024" xmlns="http://www.w3.org/2000/svg"><path d="M1021.452736 860.975124c-5.094527 66.228856-45.850746 117.174129-96.79602 142.646766-30.567164 10.189055-61.134328 15.283582-91.701493 20.378109-219.064677 0-438.129353 0-652.099502 0C89.154229 1018.905473 2.547264 947.58209 2.547264 845.691542c0-224.159204 0-448.318408 0-672.477612 0-96.79602 71.323383-168.119403 168.119403-168.119403C399.920398 0 624.079602 0 848.238806 0 939.940299 0 1021.452736 81.512438 1021.452736 173.21393c0 163.024876 0 326.049751 0 489.074627 0 10.189055 0 20.378109 0 35.661692-112.079602-35.661692-224.159204-71.323383-331.144279-101.890547 30.567164-71.323383 56.039801-142.646766 81.512438-213.970149-76.41791 0-142.646766 0-213.970149 0 0-20.378109 0-40.756219 0-56.039801 0-5.094527 15.283582-15.283582 25.472637-15.283582 66.228856 0 137.552239 0 208.875622 0 5.094527 0 15.283582 0 20.378109 0 10.189055-40.756219 5.094527-45.850746-30.567164-45.850746-71.323383 0-142.646766 0-219.064677 0 0-40.756219 0-76.41791 0-117.174129-35.661692 0-66.228856 0-96.79602 0C450.865672 147.741294 445.771144 152.835821 445.771144 168.119403c0 30.567164 0 56.039801 0 91.701493-10.189055 0-20.378109 0-30.567164 0-56.039801 0-112.079602 0-168.119403 0-40.756219 0-40.756219 0-35.661692 45.850746 76.41791 0 152.835821 0 229.253731 0 5.094527 5.094527 5.094527 5.094527 5.094527 5.094527 5.094527 61.134328 5.094527 61.134328-56.039801 61.134328-45.850746 0-86.606965 0-137.552239 0 0 15.283582 0 25.472637 0 40.756219 127.363184 0 259.820896 0 397.373134 0-20.378109 50.945274-40.756219 91.701493-56.039801 132.457711-66.228856-15.283582-127.363184-35.661692-193.59204-45.850746C328.597015 494.169154 257.273632 483.9801 185.950249 514.547264c-76.41791 30.567164-112.079602 101.890547-112.079602 173.21393 0 66.228856 61.134328 137.552239 127.363184 152.835821 147.741294 40.756219 270.00995 5.094527 376.995025-101.890547 50.945274-50.945274 50.945274-50.945274 117.174129-20.378109C802.38806 764.179104 909.373134 810.029851 1021.452736 860.975124zM532.378109 641.910448C476.338308 713.233831 415.20398 764.179104 328.597015 784.557214c-61.134328 10.189055-127.363184 10.189055-173.21393-40.756219-50.945274-50.945274-40.756219-122.268657 25.472637-152.835821 25.472637-15.283582 56.039801-20.378109 86.606965-20.378109C359.164179 565.492537 445.771144 590.965174 532.378109 641.910448z" /></svg>
