<svg width="48" height="48" viewBox="0 0 1024 1024" xmlns="http://www.w3.org/2000/svg"><path d="M625.1 158.8l9.2-13.9 9.2-13.7 20.5-30.7c2.5-3.8 1.5-8.9-2.3-11.4s-8.9-1.5-11.4 2.3l-22 32.9-9.3 13.8-9.4 14c-29.7-11.5-62.7-18-97.7-18-34.9 0-68 6.5-97.7 18l-9.4-14-9.2-13.8-22-32.9c-2.5-3.8-7.6-4.8-11.4-2.3-3.8 2.5-4.8 7.6-2.3 11.4l20.5 30.7 9.2 13.7 9.3 13.9c-69.7 32.4-116.9 94-116.9 164.4h459.8c0.1-70.4-47.1-131.9-116.7-164.4z m-211.6 98.7c-13.6 0-24.6-11-24.6-24.7 0-13.6 11-24.6 24.6-24.6 13.6 0 24.6 11 24.6 24.6 0 13.6-11 24.7-24.6 24.7z m197 0c-13.6 0-24.6-11-24.6-24.7 0-13.6 11-24.6 24.6-24.6 13.6 0 24.7 11 24.7 24.6 0 13.6-11 24.7-24.7 24.7zM285.7 356h-3.6V717.3c0 28.7 23.3 52 52 52h37.5c-1.3 4.3-1.9 8.9-1.9 13.7v104c0 27.2 22.1 49.3 49.3 49.3 27.2 0 49.3-22.1 49.3-49.3V783c0-4.8-0.7-9.3-2-13.7h91.5c-1.3 4.3-1.9 8.9-1.9 13.7v104c0 27.2 22.1 49.3 49.3 49.3 27.2 0 49.3-22.1 49.3-49.3V783c0-4.8-0.7-9.3-2-13.7h37.6c28.7 0 52-23.3 52-52V356H285.7zM200 356c-27.2 0-49.3 22-49.3 49.3V616c0 27.2 22.1 49.3 49.3 49.3 27.2 0 49.3-22.1 49.3-49.3V405.3c0-27.2-22.1-49.3-49.3-49.3zM824 356c-27.2 0-49.3 22-49.3 49.3V616c0 27.2 22.1 49.3 49.3 49.3 27.2 0 49.3-22.1 49.3-49.3V405.3c0-27.2-22.1-49.3-49.3-49.3z"  /></svg>
