<svg width="48" height="48" viewBox="0 0 1024 1024" xmlns="http://www.w3.org/2000/svg"><path d="M379.8 561.3 147.1 561.3c-45.9 0-83.1 37.3-83.1 83.1l0 232.6c0 45.9 37.3 83.1 83.1 83.1L380 960.1c22.2 0 43-8.6 58.7-24.3 15.7-15.7 24.3-36.6 24.2-58.8L462.9 644.4C462.9 598.5 425.7 561.3 379.8 561.3zM379.8 65 147.1 65C101.3 65 64 102.3 64 148.1l0 232.6c0 45.9 37.3 83.1 83.1 83.1L380 463.8c22.2 0 43-8.6 58.7-24.3 15.7-15.7 24.3-36.6 24.2-58.8L462.9 148.1C462.9 102.3 425.7 65 379.8 65zM876.1 561.3 643.4 561.3c-45.9 0-83.1 37.3-83.1 83.1l0 232.6c0 45.9 37.3 83.1 83.1 83.1l232.8 0c22.2 0 43-8.6 58.7-24.3 15.7-15.7 24.3-36.6 24.2-58.8L959.1 644.4C959.2 598.5 921.9 561.3 876.1 561.3zM876.1 65 643.4 65c-45.9 0-83.1 37.3-83.1 83.1l0 232.6c0 45.9 37.3 83.1 83.1 83.1l232.8 0c22.2 0 43-8.6 58.7-24.3 15.7-15.7 24.3-36.6 24.2-58.8L959.1 148.1C959.2 102.3 921.9 65 876.1 65z" /></svg>
