<svg width="48" height="48" viewBox="0 0 1024 1024" xmlns="http://www.w3.org/2000/svg"><path d="M584.1 232.9 584.1 232.9c21.5-7.1 42.7-21.2 63.4-42.2 24.2-24.1 42.4-50.9 53.9-80 11.2-28.8 16.8-55.3 16.8-79.1 0-2.3-0.2-4.2-0.3-6.2-0.1-1.7-0.2-3.3-0.2-5L717.7 20l-0.1-0.6c-0.5-2.5-1-5.3-1.8-8.5-0.3-1.4-0.7-2.7-1-4.2L713.2 0l-6.7 1.6c-67.3 15.7-116.1 44.6-144.7 86-28.8 41.4-44 91.3-45.1 148.3l-0.1 7.7 7.7-0.8C549.9 240.6 570.1 237.3 584.1 232.9zM924.4 745.2c-33.4-10.3-63.4-34.4-89.4-71.7-26.2-37.7-39.3-80.4-39.3-127.6 0-43 12.5-82.6 37-118.1 13.6-19.8 35.2-42 65.9-68.2l5.4-4.6-4.5-5.5c-20.8-25.7-41.8-46-62.9-60.4-38-26.4-81.7-39.6-129.9-39.6-29 0-63.2 6.6-104.4 20.3-46.8 16.3-70.5 19.8-82 19.8-13 0-39.8-5.8-79.6-17.5-42.3-12-77.2-17.8-106.4-17.8-34.8 0-67.2 7.4-96 22-28.6 14.5-54.6 36.6-77.3 65.7-45.1 58.5-68.1 134.3-68.1 225.2 0 48.5 7.4 98.6 22.2 148.6 14.5 49.3 36.6 100.3 65.5 151.8C241 972.7 301.2 1024 364.4 1024c20.9 0 48.1-7 80.8-20.2 30.8-12.6 58.1-19 81-19 24.7 0 53.8 6.3 86.6 18.5l0.1 0c38 13.1 65 19.3 85.1 19.3 52.9 0 106-40.1 157.6-118.9 33-49.7 57.7-99.8 73.3-149.4l2.2-7L924.4 745.2zM773 386.8C739.8 434.4 723 488 723 546c0 62.1 17.6 118.9 52.4 168.8 19.8 28.2 41.7 51.1 65.2 68-11.8 26.2-27 53.3-45.4 80.9-36.1 54.9-71.7 86.5-97.4 86.5-6.5 0-22.8-1.9-60.1-14.7-40.7-15.3-78.3-23.1-111.7-23.1-32.3 0-68.9 8.2-109 24.6-33.4 13.9-48.8 15-52.8 15-33.1 0-77.2-43.6-121.1-119.7C190.5 738.5 165 651.9 165 567.1c0-75.5 17.2-134.8 52.9-180.8 32-40.9 68.9-60 116.4-60 22.6 0 50.9 4.9 86.4 15.2 61.6 17.8 85 20.2 99.6 20.2 25.1 0 59.6-7.7 104.9-23.4 33.6-11.2 61-16.8 81.6-16.8 33.7 0 62.7 8.8 89 27 1.8 1.4 3.5 2.5 5.3 3.9C789.7 364.5 780.6 375.7 773 386.8z" /></svg>
