<svg width="48" height="48" viewBox="0 0 1024 1024" xmlns="http://www.w3.org/2000/svg"><path d="M879.8 246.6l-162.2-166C707.3 70 693.1 64 678.5 64L361.2 64c-17.1 0-33.6 6.3-46.5 17.7-11.1 9.8-18.9 22.8-22.5 37.2l-59.9 0c-57.5 0-104.3 47.9-104.3 106.7l0 627.6c0 58.9 46.8 106.7 104.3 106.7L740 959.9c57.5 0 104.3-47.9 104.3-106.7l0-62.8c30.3-8.7 51.7-37.1 51.7-69.9L896 286.6C896 271.6 890.3 257.4 879.8 246.6zM712.2 86.1l81.1 83L712.2 86.1c-1-1.1-2.1-2.1-3.2-3C710 84.1 711.1 85.1 712.2 86.1zM810.4 264.4 810.4 264.4l-66.8-68.3L810.4 264.4zM684.5 146.7l107.4 109.9L684.5 256.6 684.5 146.7zM676.8 127.7 676.8 127.7l0 136.7 0 0L676.8 127.7zM205.2 948.2c1.8 0.5 3.5 1 5.3 1.4C208.7 949.2 206.9 948.7 205.2 948.2zM232.3 952.1c-4.2 0-8.3-0.3-12.3-0.8C224 951.9 228.1 952.1 232.3 952.1L232.3 952.1zM775.3 853.4c0 19.8-15.8 36-35.2 36L232.3 889.4c-19.4 0-35.2-16.1-35.2-36L197.1 225.8c0-19.8 15.8-36 35.2-36l57.8 0 0 530.8c0 40.1 31.9 72.8 71.1 72.8l414.1 0L775.3 853.4zM827 720.5c0 1.1-0.9 2-2 2L361.2 722.5c-1.1 0-2-0.9-2-2L359.2 136.8c0-1.1 0.9-2 2-2l250.6 0L611.8 292c0 19.5 15.5 35.4 34.6 35.4l30.5 0L827 327.4 827 720.5zM836.7 784.2 836.7 784.2c3-0.6 6-1.4 8.8-2.4C842.6 782.9 839.7 783.7 836.7 784.2zM593.1 615.1 485.6 615.1c-19.1 0-34.6 15.9-34.6 35.4s15.5 35.4 34.6 35.4l107.5 0c19.1 0 34.6-15.9 34.6-35.4S612.2 615.1 593.1 615.1zM699.8 504.2 486 504.2c-19.1 0-34.6 15.9-34.6 35.4 0 19.5 15.5 35.4 34.6 35.4l213.8 0c19.1 0 34.6-15.9 34.6-35.4C734.4 520.1 718.9 504.2 699.8 504.2zM459.1 539.6c0-0.6 0-1.3 0.1-1.9C459.1 538.3 459.1 538.9 459.1 539.6c0 2.9 0.4 5.6 1.2 8.2C459.5 545.2 459.1 542.4 459.1 539.6zM699.8 512 486 512c-1.4 0-2.8 0.1-4.1 0.3 1.3-0.2 2.7-0.3 4.1-0.3L699.8 512c1.3 0 2.6 0.1 3.9 0.3C702.4 512.1 701.1 512 699.8 512zM712 564c1.3-0.7 2.6-1.5 3.8-2.4C714.7 562.5 713.4 563.3 712 564zM451.4 428.6c0 19.5 15.5 35.4 34.6 35.4l213.8 0c19.1 0 34.6-15.9 34.6-35.4s-15.5-35.4-34.6-35.4L486 393.2C466.9 393.3 451.4 409.1 451.4 428.6zM459.2 430.5c0-0.6-0.1-1.2-0.1-1.9 0-1.3 0.1-2.7 0.3-3.9-0.2 1.3-0.3 2.6-0.3 3.9C459.1 429.3 459.1 429.9 459.2 430.5z" /></svg>
