<svg width="48" height="48" viewBox="0 0 1024 1024" xmlns="http://www.w3.org/2000/svg"><path d="M667.7 832.8c17.7 0 32-14.6 32-32.6L699.7 418c0-18-14.3-32.6-32-32.6-17.7 0-32 14.6-32 32.6l0 382.2C635.7 818.2 650 832.8 667.7 832.8zM631.7 922.3a36 36.7 0 1 0 72 0 36 36.7 0 1 0-72 0ZM542.4 251.7 225.2 251.7c-18 0-32.6 16.1-32.6 36s14.6 36 32.6 36l317.2 0c18 0 32.6-16.1 32.6-36S560.4 251.7 542.4 251.7zM225.2 516l127.2 0c18 0 32.6-16.1 32.6-36s-14.6-36-32.6-36L225.2 444c-18 0-32.6 16.1-32.6 36S207.2 516 225.2 516zM225.2 708.3l191.2 0c18 0 32.6-16.1 32.6-36 0-19.9-14.6-36-32.6-36L225.2 636.3c-18 0-32.6 16.1-32.6 36C192.6 692.2 207.2 708.3 225.2 708.3zM857.1 63 166.9 63C110.7 63 65 108.7 65 164.9l0 690.2C65 911.3 110.7 957 166.9 957l254.5 0c19.9 0 36-16.1 36-36s-16.1-36-36-36L166.9 885c-16.5 0-29.9-13.4-29.9-29.9L137 164.9c0-16.5 13.4-29.9 29.9-29.9l690.2 0c16.5 0 29.9 13.4 29.9 29.9l0 690.2c0 16.5-13.4 29.9-29.9 29.9l-69.6 0c-19.9 0-36 16.1-36 36s16.1 36 36 36l69.6 0c56.2 0 101.9-45.7 101.9-101.9L959 164.9C959 108.7 913.3 63 857.1 63z" /></svg>
