<svg width="48" height="48" viewBox="0 0 1024 1024" xmlns="http://www.w3.org/2000/svg"><path d="M637.6 96.4 266.2 96.4c-37.2 0-67.4 28.9-67.4 64.5l0 702.2c0 35.6 30.2 64.5 67.4 64.5l491.6 0c37.2 0 67.4-28.9 67.4-64.5L825.2 306 637.6 96.4zM262 161.3c0.4-0.6 2-1.7 4.2-1.7l291 0 0 147.6c0 31.5 25.7 57.2 57.2 57.2L762 364.4l0 498.4c-0.4 0.5-1.9 1.6-4.2 1.6L266.2 864.4c-2.3 0-3.8-1-4.2-1.6L262 161.3zM620.4 301.2 620.4 172 736 301.2 620.4 301.2zM475.9 568.7l-45.3-126.5 69.7 0 12.8 46.6c3.4 12.3 7 25.9 11.4 42.7l1.4 0c8.9-16.8 16.9-30.5 24.4-42.7l27.1-46.6 66.2 0-90.1 129.3 48.7 131.4-69.7 0-15.2-50.8c-3.9-13.7-7.4-27.3-11.6-43.4l-1.4 0c-9.1 16.1-17.2 29.8-25.5 43.4l-31.4 50.8-66.9 0L475.9 568.7z" /></svg>
