<svg width="48" height="48" viewBox="0 0 1024 1024" xmlns="http://www.w3.org/2000/svg"><path d="M637.6 96.4 266.2 96.4c-37.2 0-67.4 28.9-67.4 64.5l0 702.2c0 35.6 30.2 64.5 67.4 64.5l491.6 0c37.2 0 67.4-28.9 67.4-64.5L825.2 306 637.6 96.4zM262 161.3c0.4-0.6 2-1.7 4.2-1.7l291 0 0 147.6c0 31.5 25.7 57.2 57.2 57.2L762 364.4l0 498.4c-0.4 0.5-1.9 1.6-4.2 1.6L266.2 864.4c-2.3 0-3.8-1-4.2-1.6L262 161.3zM620.4 301.2 620.4 172 736 301.2 620.4 301.2zM534.9 510.1c0-20.2-14.2-30.7-33-30.7s-32.1 9.6-46.3 23.8L410.8 462c25.2-28.9 60-48.1 101.2-48.1 56.8 0 101.2 27 101.2 90.7 0 63.7-78.3 82.4-72.4 142.9l-71 0C458.9 576.9 534.9 547.6 534.9 510.1zM471.5 726.8c0-19.4 14-34.9 33.6-34.9 19.4 0 33.6 15.5 33.6 34.9 0 19.7-14.3 35.2-33.6 35.2C485.5 762 471.5 746.5 471.5 726.8z" /></svg>
