<svg width="48" height="48" viewBox="0 0 1024 1024" xmlns="http://www.w3.org/2000/svg"><path d="M821.9 259.9 697.7 135.8l-45.8-45.8c-16.8-16.8-39.5-26.2-63.2-26.2l-49.9 0L201.8 63.8c-39.8 0-72 32.2-72 72l0 751.1c0 39.8 32.2 72 72 72l620.1 0c39.8 0 72-32.2 72-72L893.9 418.8l0-49.9c0-23.7-9.4-46.4-26.2-63.2L821.9 259.9zM610.8 150.7 807 346.8 610.8 346.8 610.8 150.7zM821.9 886.9C821.9 886.9 821.9 886.9 821.9 886.9l-620.1 0c0 0 0 0 0 0L201.8 135.8c0 0 0 0 0 0l337.1 0 0 247c0 19.9 16.1 36 36 36l247 0L821.9 886.9z" /></svg>
