<svg width="48" height="48" viewBox="0 0 1024 1024" xmlns="http://www.w3.org/2000/svg"><path d="M637.6 96.4 266.2 96.4c-37.2 0-67.4 28.9-67.4 64.5l0 702.2c0 35.6 30.2 64.5 67.4 64.5l491.6 0c37.2 0 67.4-28.9 67.4-64.5L825.2 306 637.6 96.4zM262 161.3c0.4-0.6 2-1.7 4.2-1.7l291 0 0 147.6c0 31.5 25.7 57.2 57.2 57.2L762 364.4l0 498.4c-0.4 0.5-1.9 1.6-4.2 1.6L266.2 864.4c-2.3 0-3.8-1-4.2-1.6L262 161.3zM620.4 301.2 620.4 172 736 301.2 620.4 301.2zM322.5 614.2l24-17.9c5.1 10 12.6 14.6 19.7 14.6 11.4 0 17.5-5.7 17.5-24.8l0-94 35.2 0 0 96.8c0 28.7-15.1 52.3-48 52.3C348 641.2 333.1 632.3 322.5 614.2zM451.7 492.1l51.3 0c32.3 0 58.8 11.4 58.8 47.6 0 34.8-26.9 50.2-57.8 50.2l-17.1 0 0 48.6-35.2 0L451.7 492.1zM502.3 562.1c17.1 0 25.4-8.1 25.4-22.4 0-14.8-9.4-19.9-26.4-19.9l-14.4 0 0 42.3L502.3 562.1zM580.2 566c0-48.8 32.8-76.7 72-76.7 21.4 0 36.8 9 46.8 19.1l-18.7 22.4c-7.1-6.5-14.8-11.4-26.9-11.4-21.6 0-37.2 16.9-37.2 45.4 0 29.1 13 46 40.1 46 5.3 0 10.8-1.4 14-3.7l0-23.6L647 583.5l0-28.7 54.5 0 0 68.5c-10.2 9.8-28.3 17.9-48.8 17.9C612 641.2 580.2 615.6 580.2 566z" /></svg>
