<svg width="48" height="48" viewBox="0 0 1024 1024" xmlns="http://www.w3.org/2000/svg"><path d="M637.8 97 266.4 97c-37.2 0-67.4 28.9-67.4 64.5l0 702.2c0 35.6 30.2 64.5 67.4 64.5L758 928.2c37.2 0 67.4-28.9 67.4-64.5L825.4 306.6 637.8 97zM614.6 365l147.6 0 0 498.4c-0.4 0.5-1.9 1.6-4.2 1.6L266.4 865c-2.3 0-3.8-1-4.2-1.6l0 0L262.2 161.9c0.4-0.6 2-1.7 4.2-1.7l291 0 0 147.6C557.4 339.3 583.1 365 614.6 365zM620.6 301.8 620.6 172.6l115.6 129.2L620.6 301.8zM332.9 406.1c-16.3 0-29.6 13.3-29.6 29.6 0 16.3 13.3 29.6 29.6 29.6l204.8 0c16.3 0 29.6-13.3 29.6-29.6 0-16.3-13.3-29.6-29.6-29.6L332.9 406.1zM303.3 589.4c0 16.3 13.3 29.6 29.6 29.6l358.8 0c16.3 0 29.6-13.3 29.6-29.6 0-16.3-13.3-29.6-29.6-29.6L332.9 559.8C316.6 559.8 303.3 573.1 303.3 589.4zM537.7 713.4 332.9 713.4c-16.3 0-29.6 13.3-29.6 29.6s13.3 29.6 29.6 29.6l204.8 0c16.3 0 29.6-13.3 29.6-29.6S554 713.4 537.7 713.4z" /></svg>
