<svg width="48" height="48" viewBox="0 0 1024 1024" xmlns="http://www.w3.org/2000/svg"><path d="M637.6 96.4 266.2 96.4c-37.2 0-67.4 28.9-67.4 64.5l0 702.2c0 35.6 30.2 64.5 67.4 64.5l491.6 0c37.2 0 67.4-28.9 67.4-64.5L825.2 306 637.6 96.4zM262 161.3c0.4-0.6 2-1.7 4.2-1.7l291 0 0 147.6c0 31.5 25.7 57.2 57.2 57.2L762 364.4l0 498.4c-0.4 0.5-1.9 1.6-4.2 1.6L266.2 864.4c-2.3 0-3.8-1-4.2-1.6L262 161.3zM620.4 301.2 620.4 172 736 301.2 620.4 301.2zM321 493.6l51.3 0c32.3 0 58.8 11.4 58.8 47.6 0 34.8-26.9 50.2-57.8 50.2l-17.1 0 0 48.6L321 640 321 493.6zM371.6 563.6c17.1 0 25.4-8.1 25.4-22.4 0-14.8-9.4-19.9-26.4-19.9l-14.4 0 0 42.3L371.6 563.6zM456.2 493.6l42.1 0c44.7 0 74.2 21.4 74.2 72.4s-29.5 74-72.2 74l-44.1 0L456.2 493.6zM496.1 611.6c23.6 0 40.3-10.8 40.3-45.6 0-34.8-16.7-44.5-40.3-44.5l-4.7 0 0 90.1L496.1 611.6zM599.5 493.6 693 493.6l0 29.1-58.2 0 0 32.1 50 0 0 29.3-50 0 0 55.9-35.2 0L599.6 493.6z" /></svg>
