<svg width="48" height="48" viewBox="0 0 1024 1024" xmlns="http://www.w3.org/2000/svg"><path d="M917.8 448.3c-6.8-8.4-16.3-13.8-26.8-15.3l0-86c0-33.9-27.5-61.4-61.4-61.4L490.7 285.6c-0.6-0.3-1.7-1.1-2.1-1.7l-13.7-56.3c-3.4-14.5-12.1-27.8-24.6-37.5S422.8 175 408 175L157.4 175c-33.9 0-61.4 27.5-61.4 61.4l0 553.4c0 13.7 4.6 27 13.1 37.8l-0.2 0.4 2.8 3c11.8 13 27.9 20.2 45.4 20.2 3.2 0 221.9 0.3 411 0.3 95.3 0 183.1-0.1 232.1-0.3 27-0.1 50.9-19.9 56.8-47.1l33.7-155.8 35.6-164.2C929 471.4 925.9 458.4 917.8 448.3zM884.8 438.6l0.1 0 0 0C884.9 438.6 884.8 438.6 884.8 438.6zM427.4 299.5l0.2 0.8c3.4 13.3 11.3 25.2 22.9 34.2 11.9 9.4 25.6 14.3 39.7 14.3l337.7 0 0 84L229.7 432.8c-20.1 0-37.2 13.7-41.5 33.4l-29 133.8L159.2 238.2l248.9 0c0.3 0 1.7 0.4 3.4 1.7 1.1 0.9 1.8 1.8 2 2.3L427.4 299.5zM858.8 495.8l-31.1 144.3-32 147.7L183 787.8l63.2-292L858.8 495.8z" /></svg>
