<svg width="48" height="48" viewBox="0 0 1024 1024" xmlns="http://www.w3.org/2000/svg"><path d="M892.5 248.1 515.1 248.1c-0.9-0.3-2.5-1.6-3-2.4l-15.6-56c-3.8-16.6-13.7-31.9-27.8-43.2-14-11.2-31-17.4-47.7-17.4L134.4 129.1c-38.1 0-69.1 31.6-69.1 70.4l0 625.1c0 38.8 31 70.3 69.1 70.3l758.1 0c18.2 0 35.4-7.2 48.4-20.2 13.3-13.4 20.7-31.2 20.6-50.2l0-506C961.6 279.7 930.6 248.1 892.5 248.1zM132.3 199.5c0-1.9 1.2-3.4 2.1-3.4L421 196.1c1.2 0 3.5 0.8 5.8 2.7 2.5 2 3.8 4.2 4.2 5.4l0 0.1 14.6 51.8L132.3 256.1 132.3 199.5zM894.3 824.6c0 1.1-0.3 1.9-1 2.7-0.5 0.5-0.8 0.5-1 0.5l-758 0c-0.8 0-2.1-1.4-2.1-3.4L132.2 326.8l762 0L894.2 824.6z" /></svg>
