<svg width="48px" height="46.55px" viewBox="0 0 1056 1024" xmlns="http://www.w3.org/2000/svg"><path d="M518.032173 841.65507 522.12624 775.497617 521.133661 776.028451 537.177348 590.287044 537.634966 590.615902 868.430633 94.50621 868.430633 0.042357 0 0.042357 0 1023.086365 868.430633 1023.086365 868.430633 528.302463 731.281986 730.81952 518.032173 841.65507 518.032173 841.65507ZM134.575675 222.577034 678.943421 222.775127 678.878968 276.601694 134.506066 276.404897 134.575675 222.577034 134.575675 222.577034ZM134.575675 439.675195 553.940333 439.871992 553.940333 493.76459 134.506066 493.501763 134.575675 439.675195 134.575675 439.675195ZM444.04765 710.86793 134.575675 710.665954 134.575675 656.773355 444.112103 657.036183 444.04765 710.86793 444.04765 710.86793Z"  /><path d="M909.611063 92.847678 858.662108 170.076257 866.250826 175.112706 865.590825 176.109638 868.430633 178.097029 868.430633 176.503232 1005.046895 267.589169 1055.999721 190.360589 909.611063 92.847678Z"  /><path d="M836.647478 204.750075 982.940742 302.228029 738.678634 672.051017 592.380214 574.578241 836.647478 204.750075 836.647478 204.750075Z"  /><path d="M566.543509 608.115298 552.2233 787.696442 712.670485 706.357135 566.543509 608.115298Z"  /></svg>
