<svg width="48" height="48" viewBox="0 0 1024 1024" xmlns="http://www.w3.org/2000/svg"><path d="M928.4 452.5c-10.5-43.7-41.6-75.3-67.3-90.1-21.2-12.3-45.6-18.8-70.7-18.8L699 343.6c14.3-42.7 17.9-89.9 18.3-94.9 0.1-1 0.1-1.9 0.1-2.7 0-37.1-5.4-69.4-15.9-96-10.3-25.6-25.6-45.9-45.4-60.5-18.3-13.3-39.8-21.3-63.8-23.3-19.3-1.5-39.8 0.9-59.3 7.1-28 9.1-48.5 28-61 56.2-9.4 20.9-13.1 43.9-16.3 64.4l-0.2 1.2c-0.3 1.7-0.6 3.2-0.8 4.9-1.1 7.6-2.3 14.6-3.7 21-11.9 53.4-37.5 102.1-74 140.8-19.5 20.6-40.2 37.8-61.8 50.7-14.6 8.8-31.6 13.4-49 13.4L160.7 425.9c-38 0-69 31-69 69l0 337.1c0 37.9 30.8 68.6 68.6 68.6l147.5 0c29.7 0 54.7 8 86.3 18.1l1.4 0.4c53.2 17.2 119.4 38.8 244.8 38.8l1.4 0c77.1-0.1 134.2-20 169.6-59.4 16.6-18.3 28.1-40.7 33.1-64.8 0.8-4.4 1.6-8.5 2-12.2 23.8-18.2 39-40.6 45.1-66.8 5.9-25.6 1.7-48.8-3.7-64.8 19.7-18.9 31.6-40.7 35.3-64.8 4-26.5-3.2-49.5-10.5-65 8.2-15.8 13.9-31.8 17-47.7C933.5 492 933.1 471.9 928.4 452.5zM846.6 581.9c2.2 3 11.9 17.9 9.3 34-2.2 12.7-11.8 25-28.8 36.5-15.6 10.7-19.8 31-9.6 46.5 0.4 0.8 12.5 21.5 7.7 41.6-3 12.6-12.9 24-29.4 34-11.5 6.7-17.8 19.2-16.4 32.1 0.2 1.4 1.3 25.8-18.9 47.3-22 23.5-63.2 36.1-119 36.2l-1.3 0c-113.9 0-174.8-19.5-223.8-35.4-29.8-9.6-58.1-18.7-91.4-21.2l0 0L325 482.9c8.7-3.3 17.1-7.4 24.8-12 26.7-15.8 52.5-36.8 76.5-62.4 44.8-47.4 76.2-107.2 90.9-172.6 2.3-9.9 3.9-20.4 5.4-30.1 7.1-45.4 12.6-61.4 31.1-67.3 8.7-2.8 39.1-10.6 62.3 6.3 21.6 15.7 33.3 50.4 33.5 100.2-1 15-6.7 59.4-19.3 89.1-7.4 17.4-5.7 37.1 4.9 52.7 10.3 15.7 27.7 25 46.3 25l109 0c13.2 0 25.8 3.3 36.6 9.7 13.9 7.9 30.1 25.7 35.4 47.2 5.4 22-0.7 46.8-17.8 73.7C836.7 555 837.4 570.5 846.6 581.9zM159.6 495c0-0.5 0.4-1 1-1l96.6 0 0 338.9-96.7 0c-0.5 0-0.9-0.3-0.9-0.6L159.6 495z" /></svg>
