<svg width="48" height="48" viewBox="0 0 1024 1024" xmlns="http://www.w3.org/2000/svg"><path d="M778.3 773.2c-34.8 36.1-75.6 64.5-121.4 84.4-47.4 20.6-97.8 31-150 31-100.6 0-195.2-39.2-266.3-110.3C169.4 707.2 130.3 612.6 130.3 512s39.2-195.2 110.3-266.3c71.1-71.1 165.7-110.3 266.3-110.3s195.2 39.2 266.3 110.3c14.1 14.1 36.9 14.1 50.9 0 14.1-14.1 14.1-36.9 0-50.9C783 153.5 735 121.2 681.6 98.6c-55.3-23.4-114.1-35.3-174.7-35.3S387.6 75.2 332.3 98.6c-53.4 22.6-101.4 54.9-142.6 96.1s-73.5 89.2-96.1 142.6C70.1 392.7 58.3 451.4 58.3 512s11.9 119.3 35.3 174.7c22.6 53.4 54.9 101.4 96.1 142.6 41.2 41.2 89.2 73.5 142.6 96.1 55.3 23.4 114.1 35.3 174.7 35.3 62.1 0 122.2-12.4 178.7-37 54.5-23.7 103.2-57.5 144.6-100.5 13.8-14.3 13.4-37.1-1-50.9C814.9 758.5 792.1 758.9 778.3 773.2zM962 513.1c-0.2-7.6-2.8-15.1-7.6-21.3L845.7 353.1c-12.3-15.6-34.9-18.4-50.5-6.1-15.6 12.3-18.4 34.9-6.1 50.5L852 478 444 478c-19.9 0-36 16.1-36 36 0 0.1 0 0.1 0 0.2 0 0.1 0 0.1 0 0.2 0 19.9 16.1 36 36 36L852 550.4 789 630.8c-12.3 15.6-9.5 38.3 6.1 50.5 6.6 5.2 14.4 7.7 22.2 7.7 10.7 0 21.3-4.7 28.4-13.8l108.7-138.7c4.9-6.2 7.4-13.7 7.6-21.3 0-0.4 0-0.7 0-1.1C962 513.8 962 513.5 962 513.1z" /></svg>
