<svg width="48" height="48" viewBox="0 0 1024 1024" xmlns="http://www.w3.org/2000/svg"><path d="M512 992c-11.8 0-22.9-5.6-29.7-14.9l-74.2-100.9C170.7 835.5 0 661.9 0 458.6 0 223.3 229.7 32 512 32s512 191.4 512 426.6c0 203.3-170.6 376.8-408.1 417.5L541.7 977C534.9 986.4 523.8 992 512 992L512 992 512 992zM512 101.7c-242 0-438.9 159.5-438.9 355.5 0 172.2 152 319.3 361.2 349.6 9.8 1.4 18.7 6.7 24.4 14.5l53.3 72.4 53.3-72.5c5.7-7.8 14.5-13.1 24.4-14.5 209.3-30.3 361.2-177.4 361.2-349.6C950.9 261.1 754 101.7 512 101.7L512 101.7 512 101.7zM299.6 509.7c-30.4 0-55.2-24-55.2-53.6s24.7-53.6 55.2-53.6 55.2 24 55.2 53.6S330.1 509.7 299.6 509.7L299.6 509.7 299.6 509.7zM686.1 509.7c-30.4 0-55.2-24-55.2-53.6s24.7-53.6 55.2-53.6c30.4 0 55.2 24 55.2 53.6C741.2 485.7 716.5 509.7 686.1 509.7L686.1 509.7 686.1 509.7zM492.9 509.7c-30.4 0-55.2-24-55.2-53.6s24.7-53.6 55.2-53.6c30.4 0 55.2 24 55.2 53.6S523.3 509.7 492.9 509.7L492.9 509.7 492.9 509.7zM503.3 554.3" /></svg>
