<svg width="48" height="48" viewBox="0 0 1024 1024" xmlns="http://www.w3.org/2000/svg"><path d="M759.9 60.8 258.8 60.8c-39.8 0-72 32.2-72 72l0 753.1c0 39.8 32.2 72 72 72l501.1 0c39.8 0 72-32.2 72-72L831.9 132.8C831.9 93 799.6 60.8 759.9 60.8zM258.8 132.8l501.1 0 0 0 0 523.1L258.8 655.9 258.8 132.8C258.8 132.8 258.8 132.8 258.8 132.8zM759.9 885.9 258.8 885.9c0 0 0 0 0 0l0-158 501.1 0L759.9 885.9C759.9 885.9 759.9 885.9 759.9 885.9zM543 768.8l-62 0c-19.9 0-36 16.1-36 36s16.1 36 36 36l62 0c19.9 0 36-16.1 36-36S562.9 768.8 543 768.8z" /></svg>
