<svg width="48" height="48" viewBox="0 0 1024 1024" xmlns="http://www.w3.org/2000/svg"><path d="M893.405867 447.744c-19.8656-20.821333-47.104-32.256-76.663467-32.256h-2.304c-12.458667 0-24.132267 2.048-35.549867 6.178133-19.285333-32.6144-53.4528-52.753067-92.142933-52.753066-12.919467 0-25.736533 2.167467-37.751467 6.519466-19.285333-32.733867-53.5552-52.974933-92.228266-52.974933-7.6288 0-14.8992 1.365333-21.589334 3.549867v-62.020267a118.562133 118.562133 0 0 0-30.139733-78.609067c-20.4288-22.664533-48.0256-35.140267-77.4656-35.140266-59.904 0-110.592 52.053333-110.592 113.749333v293.495467l-19.063467-18.875734c-20.548267-20.138667-49.169067-30.788267-80.571733-29.986133-29.559467 0.802133-57.156267 11.6736-75.741867 30.1056A128.989867 128.989867 0 0 0 105.130667 611.498667c-4.5056 33.1776 5.9904 64.3072 29.781333 87.995733l250.760533 246.818133c5.649067 5.597867 12.2368 10.752 19.387734 15.104C451.925333 999.048533 507.8016 1024 626.0224 1024c64.187733 0 115.797333-8.2432 157.815467-25.2928 40.072533-16.247467 70.314667-39.816533 92.484266-72.311467 39.0144-56.866133 46.984533-131.242667 46.984534-225.314133V524.407467c0.119467-29.064533-10.513067-56.285867-29.9008-76.663467z m-11.554134 253.457067c0 86.510933-6.8096 154.026667-39.714133 202.1888-37.1712 54.237867-105.864533 79.530667-215.995733 79.530666-107.127467 0-154.350933-20.718933-195.805867-54.237866-0.802133-0.580267-1.501867-1.143467-2.423467-1.706667a71.304533 71.304533 0 0 1-12.919466-9.966933L164.232533 670.208c-33.365333-33.058133-16.162133-79.752533 6.690134-102.4 10.8544-10.752 28.637867-17.5104 47.445333-17.9712h2.321067c19.165867 0 36.130133 6.4 48.0256 18.090667l54.613333 53.879466c5.9904 5.8368 14.882133 7.68 22.6304 4.471467 7.7312-3.208533 12.8-10.6496 12.8-18.9952V263.9872c0-38.690133 32.221867-72.5504 69.051733-72.5504 35.7888 0 66.030933 33.1776 66.030934 72.533333v43.383467c-0.341333 1.604267-0.580267 3.191467-0.580267 4.9152v200.362667c0 11.332267 9.352533 20.599467 20.7872 20.599466 11.434667 0 20.770133-9.2672 20.770133-20.599466v-141.653334c7.748267-4.010667 15.479467-7.338667 22.186667-7.338666 27.6992 0 50.8928 16.384 61.405867 42.922666v143.701334c0 11.332267 9.352533 20.616533 20.770133 20.616533 11.434667 0 20.7872-9.284267 20.7872-20.599467v-134.792533a70.229333 70.229333 0 0 1 27.016533-5.376c27.6992 0 50.909867 16.349867 61.422934 42.9056v136.157867c0 11.332267 9.352533 20.599467 20.770133 20.599466 11.434667 0 20.7872-9.2672 20.7872-20.599466V461.824a59.426133 59.426133 0 0 1 24.712533-5.154133h2.304c18.005333 0 34.5088 6.877867 46.421334 19.456 11.997867 12.5952 18.688 29.7472 18.688 48.298666v176.776534h-0.238934zM238.472533 226.816a20.667733 20.667733 0 0 1-20.7872-20.599467C217.685333 92.450133 310.971733 0 425.728 0c114.756267 0 208.042667 92.450133 208.042667 206.199467 0 11.332267-9.352533 20.599467-20.7872 20.599466-11.434667 0-20.7872-9.2672-20.7872-20.599466 0-90.965333-74.683733-165.000533-166.468267-165.000534-91.784533 0-166.485333 74.0352-166.485333 165.000534 0 11.332267-9.352533 20.599467-20.770134 20.599466z"></path></svg>
