<svg width="48" height="48" viewBox="0 0 1024 1024" xmlns="http://www.w3.org/2000/svg"><path d="M512 0C229.3 0 0 229.3 0 512s229.3 512 512 512 512-229.3 512-512S794.7 0 512 0zM823.1 823.1c-40.4 40.4-87.5 72.2-139.9 94.3C629 940.4 571.4 952 512 952s-117-11.6-171.2-34.6c-52.4-22.2-99.4-53.9-139.9-94.3-40.4-40.4-72.2-87.5-94.3-139.9C83.6 629 72 571.4 72 512s11.6-117 34.6-171.2c22.2-52.4 53.9-99.4 94.3-139.9 40.4-40.4 87.5-72.2 139.9-94.3C395 83.6 452.6 72 512 72s117 11.6 171.2 34.6c52.4 22.2 99.4 53.9 139.9 94.3 40.4 40.4 72.2 87.5 94.3 139.9C940.4 395 952 452.6 952 512s-11.6 117-34.6 171.2C895.3 735.6 863.5 782.7 823.1 823.1zM715.5 552.3 549.1 552.3 549.1 452.1l165.3 0c21.2 0 38.4-17.2 38.4-38.4 0-21.2-17.2-38.4-38.4-38.4L604.4 375.3l87-87c15-15.1 14.9-39.5 0-54.4-7.3-7.2-16.9-11.2-27.2-11.2s-20 4-27.2 11.2L510.8 360 384.6 233.8c-7.3-7.2-16.9-11.2-27.2-11.2s-20 4-27.2 11.2c-14.9 15.1-14.9 39.5 0 54.4l87.3 87L308.7 375.2c-21.2 0-38.4 17.2-38.4 38.4 0 21.2 17.2 38.4 38.4 38.4l163.4 0 0 100.2L308.5 552.2c-21.2 0-38.4 17.2-38.4 38.4s17.2 38.4 38.4 38.4l163.8 0 0 133.8c0 21.2 17.2 38.4 38.4 38.4 21.2 0 38.4-17.2 38.4-38.4L549.1 629.2l166.4 0c21.2 0 38.4-17.2 38.4-38.4C753.9 569.5 736.7 552.3 715.5 552.3z" /></svg>
