<svg width="48" height="48" viewBox="0 0 1024 1024" xmlns="http://www.w3.org/2000/svg"><path d="M512 0C229.3 0 0 229.3 0 512s229.3 512 512 512 512-229.3 512-512S794.7 0 512 0zM715.5 629.2 549.1 629.2l0 133.8c0 21.2-17.2 38.4-38.4 38.4-21.2 0-38.4-17.2-38.4-38.4L472.3 629.2 308.5 629.2c-21.2 0-38.4-17.2-38.4-38.4s17.2-38.4 38.4-38.4l163.7 0L472.2 452.1 308.7 452.1c-21.2 0-38.4-17.2-38.4-38.4 0-21.2 17.2-38.4 38.4-38.4l108.7 0-87.3-87c-14.9-14.9-14.9-39.3 0-54.4 7.2-7.2 16.9-11.2 27.2-11.2s19.9 4 27.2 11.2L510.8 360 637 233.8c7.2-7.2 16.9-11.2 27.2-11.2s19.9 4 27.2 11.2c14.9 14.9 15 39.3 0 54.4l-87 87 110.1 0c21.2 0 38.4 17.2 38.4 38.4 0 21.2-17.2 38.4-38.4 38.4L549.1 452l0 100.2 166.4 0c21.2 0 38.4 17.2 38.4 38.4C753.9 612 736.7 629.2 715.5 629.2z" /></svg>
