<svg width="48" height="48" viewBox="0 0 1024 1024" xmlns="http://www.w3.org/2000/svg"><path d="M0 512C0 229.230208 229.230208 0 512 0 794.769792 0 1024 229.230208 1024 512 1024 794.769792 794.769792 1024 512 1024 229.230208 1024 0 794.769792 0 512ZM989.090909 512C989.090909 248.509966 775.490034 34.909091 512 34.909091 248.509966 34.909091 34.909091 248.509966 34.909091 512 34.909091 775.490034 248.509966 989.090909 512 989.090909 775.490034 989.090909 989.090909 775.490034 989.090909 512ZM736.519687 561.342217 446.425167 742.406079C402.727384 769.680256 367.303333 750.181755 367.303333 698.744839L367.303333 325.171067C367.303333 273.783452 402.483679 254.08354 446.425167 281.509825L736.519687 462.573687C780.21747 489.847864 780.461175 533.915932 736.519687 561.342217ZM427.94139 311.123919C407.331924 298.260424 402.212424 301.098319 402.212424 325.171067L402.212424 698.744839C402.212424 722.706234 407.439441 725.588373 427.94139 712.791985L718.03591 531.728121C739.965566 518.040625 739.944788 505.862312 718.03591 492.187783L427.94139 311.123919Z" /></svg>
