<svg width="48" height="48" viewBox="0 0 1024 1024" xmlns="http://www.w3.org/2000/svg"><path d="M512 0C229.2 0 0 229.2 0 512s229.2 512 512 512 512-229.2 512-512S794.8 0 512 0zM841.1 841c-42.7 42.7-92.5 76.3-147.9 99.7C635.8 965 574.8 977.3 512 977.3S388.2 965 330.9 940.8c-55.4-23.4-105.2-57-147.9-99.7s-76.3-92.5-99.7-147.9C59 635.8 46.7 574.8 46.7 512S59 388.2 83.2 330.9c23.4-55.4 57-105.2 99.7-147.9 42.7-42.7 92.5-76.3 147.9-99.7C388.2 59 449.2 46.7 512 46.7S635.8 59 693.1 83.2c55.4 23.4 105.2 57 147.9 99.7 42.7 42.7 76.3 92.5 99.7 147.9 24.3 57.3 36.5 118.3 36.5 181.1S965 635.8 940.8 693.1C917.4 748.5 883.8 798.3 841.1 841zM733.2 469.2c-38-22.3-300.9-176.1-323.3-188.8-22.4-12.7-53.5-5.2-53.5 26.9 0 16.1 0 384.7 0 400.7 0 32.1 31 39.6 53.5 26.9 22.4-12.7 285.2-166.7 323.3-188.8C768.7 525.7 768.2 489.8 733.2 469.2z" /></svg>
