<svg width="48" height="48" viewBox="0 0 1024 1024" xmlns="http://www.w3.org/2000/svg"><path d="M512 0C229.2 0 0 229.2 0 512s229.2 512 512 512 512-229.2 512-512S794.8 0 512 0zM823.1 823.1c-40.4 40.4-87.5 72.2-139.9 94.3C629 940.4 571.4 952 512 952c-59.4 0-117-11.6-171.2-34.5-52.4-22.2-99.4-53.9-139.9-94.3-40.4-40.4-72.2-87.5-94.3-139.9C83.6 629 72 571.4 72 512c0-59.4 11.6-117 34.5-171.2 22.2-52.4 53.9-99.4 94.3-139.9 40.4-40.4 87.5-72.2 139.9-94.3C395 83.6 452.6 72 512 72c59.4 0 117 11.6 171.2 34.5 52.4 22.2 99.4 53.9 139.9 94.3 40.4 40.4 72.2 87.5 94.3 139.9C940.4 395 952 452.6 952 512c0 59.4-11.6 117-34.5 171.2C895.3 735.6 863.6 782.7 823.1 823.1zM668.9 243.5c-17.2-10-39.2-4.1-49.2 13.1-10 17.2-4.1 39.2 13.1 49.2 36 20.9 66.2 50.8 87.3 86.7 21.7 36.9 33.2 79.1 33.2 122.2 0 64.4-25.1 125-70.7 170.6S576.4 756 512 756s-125-25.1-170.6-70.7-70.7-106.2-70.7-170.6c0-43.1 11.5-85.3 33.2-122.2 21.1-35.8 51.3-65.8 87.3-86.7 17.2-10 23.1-32 13.1-49.2-10-17.2-32-23.1-49.2-13.1-46.7 27.1-85.8 65.9-113.2 112.4-28.2 47.9-43.2 102.8-43.2 158.8 0 83.7 32.6 162.3 91.8 221.5C349.7 795.4 428.3 828 512 828c83.7 0 162.3-32.6 221.5-91.8 59.2-59.2 91.8-137.8 91.8-221.5 0-55.9-14.9-110.8-43.2-158.8C754.7 309.5 715.6 270.6 668.9 243.5zM512 480c19.9 0 36-16.1 36-36L548 228c0-19.9-16.1-36-36-36-19.9 0-36 16.1-36 36l0 216C476 463.9 492.1 480 512 480z" /></svg>
