<svg width="48" height="48" viewBox="0 0 1024 1024" xmlns="http://www.w3.org/2000/svg"><path d="M637.6 96.4 266.2 96.4c-37.2 0-67.4 28.9-67.4 64.5l0 702.2c0 35.6 30.2 64.5 67.4 64.5l491.6 0c37.2 0 67.4-28.9 67.4-64.5L825.2 306 637.6 96.4zM262 161.3c0.4-0.6 2-1.7 4.2-1.7l291 0 0 147.6c0 31.5 25.7 57.2 57.2 57.2L762 364.4l0 498.4c-0.4 0.5-1.9 1.6-4.2 1.6L266.2 864.4c-2.3 0-3.8-1-4.2-1.6L262 161.3zM620.4 301.2 620.4 172 736 301.2 620.4 301.2zM443.4 434.2l91.5 0c57.5 0 101.2 20.3 89.8 84.8-10.9 62-63.8 89.3-118.8 89.3l-30.5 0-15.3 96.5-62.7 0L443.4 434.2zM511.5 559c30.5 0 47.7-14.4 52.2-39.9 4.6-26.3-10.6-35.4-40.7-35.4l-25.6 0L484.2 559 511.5 559z" /></svg>
