<svg width="48" height="48" viewBox="0 0 1024 1024" xmlns="http://www.w3.org/2000/svg"><path d="M512 1024C357.262222 1024 68.266667 794.168889 68.266667 575.715556V161.564444c0-11.377778 6.826667-18.204444 18.204444-18.204444h25.031111s97.848889-2.275556 202.524445-40.96C418.702222 61.44 484.693333 13.653333 484.693333 13.653333l15.928889-11.377777c4.551111-2.275556 9.102222-2.275556 11.377778-2.275556 4.551111 0 6.826667 0 11.377778 2.275556l15.928889 11.377777s68.266667 47.786667 170.666666 88.746667c100.124444 38.684444 200.248889 40.96 202.524445 40.96h25.031111c11.377778 0 18.204444 6.826667 18.204444 18.204444v414.151112C955.733333 794.168889 666.737778 1024 512 1024zM887.466667 209.351111c-38.684444-2.275556-118.328889-13.653333-202.524445-47.786667-86.471111-34.133333-147.911111-70.542222-172.942222-86.471111-25.031111 15.928889-88.746667 54.613333-172.942222 88.746667-84.195556 34.133333-163.84 43.235556-202.524445 45.511111v366.364445c0 170.666667 250.311111 377.742222 375.466667 377.742222 50.062222 0 143.36-38.684444 234.382222-125.155556 88.746667-81.92 143.36-175.217778 143.36-254.862222v-364.088889H887.466667zM475.591111 646.257778c-6.826667 6.826667-15.928889 11.377778-22.755555 11.377778-6.826667 0-18.204444-2.275556-22.755556-11.377778l-104.675556-104.675556c-13.653333-13.653333-13.653333-36.408889 0-50.062222 13.653333-13.653333 36.408889-13.653333 50.062223 0l77.368889 77.368889 197.973333-197.973333c13.653333-13.653333 36.408889-13.653333 50.062222 0 13.653333 13.653333 13.653333 34.133333 0 50.062222l-225.28 225.28z"></path></svg>
