<svg width="48" height="48" viewBox="0 0 1024 1024" xmlns="http://www.w3.org/2000/svg"><path d="M891.211294 147.606588L566.814118 37.797647c-30.268235-10.24-79.36-10.24-109.628236 0L132.788706 147.606588c-30.268235 10.24-54.814118 44.453647-54.814118 76.438588V574.945882c0 197.421176 267.565176 352.406588 380.988236 408.816942 28.611765 14.215529 76.769882 12.709647 106.10447 0 118.211765-51.290353 380.988235-193.385412 380.988235-391.55953V224.015059c-0.030118-31.954824-24.576-66.168471-54.844235-76.408471z m-178.838588 246.000941l-237.025882 251.482353a29.003294 29.003294 0 0 1-41.923765 0.602353l-121.163294-121.404235a15.540706 15.540706 0 0 1-0.090353-21.835294 16.865882 16.865882 0 0 1 22.528-1.084235l117.308235 98.454588 238.290824-225.972706a15.932235 15.932235 0 0 1 21.202823-0.331294 13.914353 13.914353 0 0 1 0.873412 20.08847z" fill="currentColor"></path></svg>
