<svg width="48" height="48" viewBox="0 0 1024 1024" xmlns="http://www.w3.org/2000/svg"><path d="M128.4 312.1c17.9 0 32.4-14.5 32.4-32.4l0-98.3c0-10.8 8.8-19.6 19.6-19.6l98.3 0c17.9 0 32.4-14.5 32.4-32.4 0-17.9-14.5-32.4-32.4-32.4L153.2 97C121.7 97 96 122.7 96 154.2l0 125.5C96 297.6 110.5 312.1 128.4 312.1zM278.7 863.4l-98.3 0c-10.8 0-19.6-8.8-19.6-19.6l0-98.3c0-17.9-14.5-32.4-32.4-32.4-17.9 0-32.4 14.5-32.4 32.4L96 871c0 31.5 25.7 57.2 57.2 57.2l125.5 0c17.9 0 32.4-14.5 32.4-32.4S296.6 863.4 278.7 863.4zM894.8 713.1c-17.9 0-32.4 14.5-32.4 32.4l0 98.3c0 10.8-8.8 19.6-19.6 19.6l-98.3 0c-17.9 0-32.4 14.5-32.4 32.4s14.5 32.4 32.4 32.4L870 928.2c31.5 0 57.2-25.7 57.2-57.2L927.2 745.5C927.2 727.6 912.7 713.1 894.8 713.1zM870 97 744.5 97c-17.9 0-32.4 14.5-32.4 32.4 0 17.9 14.5 32.4 32.4 32.4l98.3 0c10.8 0 19.6 8.8 19.6 19.6l0 98.3c0 17.9 14.5 32.4 32.4 32.4s32.4-14.5 32.4-32.4L927.2 154.2C927.2 122.7 901.5 97 870 97zM249.6 307.8l0 409.6c0 31.5 25.7 57.2 57.2 57.2l409.6 0c31.5 0 57.2-25.7 57.2-57.2L773.6 307.8c0-31.5-25.7-57.2-57.2-57.2L306.8 250.6C275.3 250.6 249.6 276.3 249.6 307.8zM311.1 693.5 311.1 331.7c0-10.8 8.8-19.6 19.6-19.6l361.8 0c10.8 0 19.6 8.8 19.6 19.6l0 361.8c0 10.8-8.8 19.6-19.6 19.6L330.7 713.1C319.9 713.1 311.1 704.3 311.1 693.5z" /></svg>
