<svg width="48" height="48" viewBox="0 0 1024 1024" xmlns="http://www.w3.org/2000/svg"><path d="M575 287.7c0-19.9-14.6-36-32.6-36L225.2 251.7c-18 0-32.6 16.1-32.6 36s14.6 36 32.6 36l317.2 0C560.4 323.7 575 307.6 575 287.7zM225.2 516l127.2 0c18 0 32.6-16.1 32.6-36 0-19.9-14.6-36-32.6-36L225.2 444c-18 0-32.6 16.1-32.6 36C192.6 499.9 207.2 516 225.2 516zM225.2 708.3l191.2 0c18 0 32.6-16.1 32.6-36s-14.6-36-32.6-36L225.2 636.3c-18 0-32.6 16.1-32.6 36S207.2 708.3 225.2 708.3zM857.1 63 166.9 63C110.6 63 65 108.6 65 164.9l0 690.2C65 911.4 110.6 957 166.9 957l253.8 0c19.7 0 36.3-15.6 36.6-35.3 0.4-20.2-15.8-36.7-36-36.7L166.9 885c-16.5 0-29.9-13.4-29.9-29.9L137 164.9c0-16.5 13.4-29.9 29.9-29.9l690.2 0c16.5 0 29.9 13.4 29.9 29.9l0 372.9c0 19.9 16.1 36 36 36l0 0c19.9 0 36-16.1 36-36L959 164.9C959 108.6 913.4 63 857.1 63zM894 801.6c-16.9-16.9-36.1-30.7-56.8-41.2 20.5-23.9 33-55 33-88.9 0-75.3-61.2-136.5-136.5-136.5s-136.5 61.2-136.5 136.5c0 35.2 13.4 67.3 35.4 91.6-18.3 9.8-35.3 22.2-50.4 37-32.5 31.8-53.9 71.8-62.4 115.4-4.3 22.2 12.8 42.8 35.4 42.8l0 0c17.2 0 32-12.2 35.4-29.1 13.6-68.6 74.2-120.4 146.7-120.4 72.5 0 133.1 51.9 146.7 120.4 3.4 16.9 18.1 29.1 35.4 29.1l0 0c22.6 0 39.7-20.6 35.4-42.7C946.4 872.6 925.5 833.2 894 801.6zM733.7 736c-35.6 0-64.5-28.9-64.5-64.5s28.9-64.5 64.5-64.5 64.5 28.9 64.5 64.5S769.2 736 733.7 736z" /></svg>
