<svg width="48" height="48" viewBox="0 0 1024 1024" xmlns="http://www.w3.org/2000/svg"><path fill="#333333" d="M506.07616 32C246.89664 32 32 246.89664 32 517.92384c0 259.17952 214.89664 474.07616 474.07616 474.07616 271.03232 0 485.92384-214.89664 485.92384-474.07616 0-271.0272-214.89664-485.92384-485.92384-485.92384z m273.60768 338.69824l-341.28896 335.88224a5.11488 5.11488 0 0 1-7.2704-0.09216l-157.34272-162.8416a6.2976 6.2976 0 0 1-0.512-7.9104l21.62688-29.42464a5.03296 5.03296 0 0 1 7.16288-1.03936l128.58368 98.54976c2.25792 1.73568 5.89824 1.63328 8.0384-0.14336l312.97536-260.736a5.7856 5.7856 0 0 1 7.63904 0.34816l20.38272 20.14208a5.05344 5.05344 0 0 1 0.00512 7.26528z" /></svg>
