<svg width="48" height="48" viewBox="0 0 1024 1024" xmlns="http://www.w3.org/2000/svg"><path d="M505.679828 0C229.221849 0 0 229.221849 0 518.320172 0 794.778151 229.221849 1024 505.679828 1024 794.778151 1024 1024 794.778151 1024 518.320172 1024 229.221849 794.778151 0 505.679828 0z" fill="#09BB07" /><path d="M775.773591 332.051269a6.182538 6.182538 0 0 0-8.136946-0.379871l-333.851527 278.126107c-2.279226 1.899355-6.160516 2.003957-8.571871 0.154151L288.057806 504.832a5.378753 5.378753 0 0 0-7.646967 1.123097L257.354323 537.324731a6.716559 6.716559 0 0 0 0.545032 8.428731l167.836903 173.700129a5.466839 5.466839 0 0 0 7.75157 0.099097l364.043011-358.273376a5.40628 5.40628 0 0 0-0.011011-7.746065l-21.746237-21.481978z" fill="#FFFFFF" /></svg>
