<svg width="48" height="48" viewBox="0 0 1024 1024" xmlns="http://www.w3.org/2000/svg"><path fill="#333333" d="M512 0C228.693333 0 0 228.693333 0 512s228.693333 512 512 512 512-228.693333 512-512S795.306667 0 512 0z m228.693333 689.493333c13.653333 13.653333 13.653333 37.546667 0 51.2-6.826667 6.826667-17.066667 10.24-27.306666 10.24s-20.48-3.413333-27.306667-10.24L512 563.2l-174.08 177.493333c-10.24 6.826667-17.066667 10.24-27.306667 10.24-10.24 0-20.48-3.413333-27.306666-10.24-13.653333-13.653333-13.653333-37.546667 0-51.2l174.08-177.493333-174.08-177.493333c-13.653333-13.653333-13.653333-37.546667 0-51.2 13.653333-13.653333 37.546667-13.653333 51.2 0l174.08 177.493333L682.666667 283.306667c13.653333-13.653333 37.546667-13.653333 51.2 0 13.653333 13.653333 13.653333 37.546667 0 51.2l-170.666667 177.493333 177.493333 177.493333z"  /></svg>
