<svg width="48" height="48" viewBox="0 0 1024 1024" xmlns="http://www.w3.org/2000/svg"><path fill="#333333" d="M506.07616 42.24c128.34304 0 248.15616 49.1264 337.36192 138.32704 89.20064 89.20064 138.32704 209.00864 138.32704 337.3568 0 255.75936-213.39136 463.83616-475.68384 463.83616-122.61376 0-238.74048-48.59904-326.9888-136.84736C90.83904 756.66944 42.24 640.5376 42.24 517.92384 42.24 255.63136 250.3168 42.24 506.07616 42.24m0-10.24C246.89664 32 32 246.89664 32 517.92384c0 259.17952 214.89664 474.07616 474.07616 474.07616 271.03232 0 485.92384-214.89664 485.92384-474.07616 0-271.0272-214.89664-485.92384-485.92384-485.92384z" /></svg>
