<svg width="48" height="48" viewBox="0 0 1024 1024" xmlns="http://www.w3.org/2000/svg"><path d="M502.6910384-242.12320149C95.49694425-242.12320149-242.12320149 95.49694425-242.12320149 521.3089616-242.12320149 928.50305575 95.49694425 1266.12320149 502.6910384 1266.12320149 928.50305575 1266.12320149 1266.12320149 928.50305575 1266.12320149 521.3089616 1266.12320149 95.49694425 928.50305575-242.12320149 502.6910384-242.12320149z" fill="#F76260" /><path d="M482.25673285 675.56364585h59.4865343c4.47608647 0 8.2385927-3.68141886 8.39266214-8.04398031l18.02597774-488.0231266A15.51223325 15.51223325 0 0 0 552.49560436 163.31937965h-80.99120872a15.51223325 15.51223325 0 0 0-15.66630267 16.17715929l18.02597774 488.0231266c0.16217773 4.44365035 3.94901036 8.04398033 8.39266214 8.04398031z" fill="#FFFFFF" /><path d="M512 803.91865807m-56.76196078 0a56.76196078 56.76196078 0 1 0 113.52392156 0 56.76196078 56.76196078 0 1 0-113.52392159 0Z" fill="#FFFFFF" /></svg>
