<svg width="48" height="48" viewBox="0 0 1024 1024" xmlns="http://www.w3.org/2000/svg"><path d="M505.679828 0C229.221849 0 0 229.221849 0 518.320172 0 794.778151 229.221849 1024 505.679828 1024 794.778151 1024 1024 794.778151 1024 518.320172 1024 229.221849 794.778151 0 505.679828 0z" fill="#F76260" /><path d="M491.80628 623.048946h40.38744c3.038968 0 5.593462-2.499441 5.698065-5.461333l12.238452-331.33557A10.531785 10.531785 0 0 0 539.493849 275.268817h-54.987698a10.531785 10.531785 0 0 0-10.636388 10.983226l12.238452 331.33557c0.110108 3.016946 2.681118 5.461333 5.698065 5.461333z" fill="#FFFFFF" /><path d="M512 710.193548m-38.537634 0a38.537634 38.537634 0 1 0 77.075268 0 38.537634 38.537634 0 1 0-77.075268 0Z" fill="#FFFFFF" /></svg>
