<svg width="48" height="48" viewBox="0 0 1029 1024" xmlns="http://www.w3.org/2000/svg"><path d="M565.600932 1024h-101.890548c-9.809675-2.005293-19.565153-4.444162-29.429025-6.015878-278.031121-45.091987-468.859109-308.923468-422.737377-584.786705C57.774108 155.220493 317.649201-32.680851 594.542183 11.110405c234.998624 37.17921 415.474966 236.245157 428.915846 472.652906 13.603472 239.280195-139.720123 455.797608-369.082248 520.292156-29.15804 8.129565-59.183233 13.332487-88.774849 19.944533z m-50.728486-448.318408v-25.689425c0-92.406055-0.541971-184.866307 0.37938-277.272362 0-20.432307-8.508945-23.575738-25.960411-23.629935s-25.960411 3.522811-25.797819 23.792527c0.867154 111.049857 0.487774 222.208108 0 333.203768 0 12.573727 1.30073 20.811686 17.451466 20.703292q144.977241-0.812956 289.954483 0c14.633217 0 17.993437-6.341061 19.185773-19.890336 2.167884-23.955118-5.41971-32.51826-30.675558-31.813697-80.265905 1.625913-160.748597 0.596168-244.537314 0.596168z" fill="#10AEFF" /><path d="M565.600932 1024c29.591616-6.612046 59.61681-11.814968 88.774849-19.99873 229.307928-64.440351 382.68572-280.957764 369.082248-520.292156-13.440881-236.353551-193.917222-435.419498-428.915846-472.598709C317.649201-32.680851 57.774108 155.220493 11.435588 433.197417c-46.013338 275.863237 144.81465 539.748915 422.737377 584.786705 9.863872 1.625913 19.61935 4.010585 29.429025 6.015878H0V0h1029.202922v1024z" fill="#FFFFFF" /><path d="M514.872446 575.681592c84.005504 0 164.488197 1.029745 244.916693-0.596168 25.310046-0.487774 32.789245 7.858579 30.675559 31.813697-1.246533 13.549275-4.552556 19.944533-19.185773 19.890336q-144.977241-0.541971-289.954483 0c-16.25913 0-17.451466-8.129565-17.451466-20.703292 0-111.049857 0.596168-222.208108 0-333.203768 0-20.269715 8.129565-23.846724 25.797819-23.792527s26.177199 3.197629 25.960411 23.629935c-0.921351 92.406055-0.37938 184.81211-0.37938 277.272362-0.37938 7.533397-0.37938 15.012597-0.37938 25.689425z" fill="#FFFFFF" /></svg>
