<svg width="48" height="48" viewBox="0 0 1024 1024" xmlns="http://www.w3.org/2000/svg"><path d="M297.857 297.246c-23.12 0-46.238 14.8-46.238 37.92s23.119 37.916 46.238 37.916c23.119 0 37.916-14.796 37.916-37.916s-14.797-37.92-37.916-37.92zM608.279 515.5c-14.796 0-29.903 14.796-29.903 29.907 0 14.797 14.797 29.898 29.903 29.898 23.12 0 37.916-14.796 37.916-29.898 0.309-14.806-14.795-29.907-37.916-29.907zM1020.738 157.607c0-85.39-69.052-154.75-154.75-154.75h-707.776c-85.387 0-154.746 69.052-154.746 154.75v708.081c0 85.392 69.052 154.75 154.746 154.75h708.082c85.392 0 154.749-69.052 154.749-154.75v-708.081h-0.305zM396.811 682.271c-37.92 0-67.819-8.017-105.733-14.796l-105.739 53.015 29.903-90.931c-75.835-53.026-120.838-120.839-120.838-204.687 0-143.653 135.634-257.713 302.406-257.713 149.201 0 279.289 90.941 305.181 213.010-9.557-1.23-19.115-1.23-28.363-1.23-143.647 0-257.709 107.271-257.709 240.133 0 21.584 4.009 43.473 9.557 63.818-9.557-0.62-19.11-0.62-28.668-0.62zM843.174 788.314l23.12 75.83-82.614-46.239c-29.903 8.019-61.035 14.797-90.935 14.797-143.653 0-257.709-98.949-257.709-219.788 0-120.839 114.055-219.798 257.709-219.798 135.634 0 256.474 98.959 256.474 219.798-0.304 69.356-45.004 130.39-106.043 175.398zM775.357 515.5c-14.796 0-29.903 14.796-29.903 29.907 0 14.797 14.796 29.898 29.903 29.898 23.119 0 37.915-14.796 37.915-29.898 0.001-14.806-16.335-29.907-37.915-29.907zM509.326 371.846c23.119 0 37.915-14.796 37.915-37.916s-14.796-37.916-37.915-37.916c-23.12 0-44.699 14.796-44.699 37.916 0 22.815 23.119 37.916 44.699 37.916z" /></svg>
