<svg width="48" height="48" viewBox="0 0 1024 1024" xmlns="http://www.w3.org/2000/svg"><path d="M637.6 96.4 266.2 96.4c-37.2 0-67.4 28.9-67.4 64.5l0 702.2c0 35.6 30.2 64.5 67.4 64.5l491.6 0c37.2 0 67.4-28.9 67.4-64.5L825.2 306 637.6 96.4zM262 161.3c0.4-0.6 2-1.7 4.2-1.7l291 0 0 147.6c0 31.5 25.7 57.2 57.2 57.2L762 364.4l0 498.4c-0.4 0.5-1.9 1.6-4.2 1.6L266.2 864.4c-2.3 0-3.8-1-4.2-1.6L262 161.3zM620.4 301.2 620.4 172 736 301.2 620.4 301.2zM384.1 451.8l62.2 0L442 567.1l-3.9 80.2 1.4 0c9.5-26.9 19.4-54.1 29.1-80.2l46.2-115.3 51 0 6.2 115.3c0.5 25.8 0.2 53 0.5 80.2l1.7 0c7.9-27.2 16-54.1 23.7-80.2l36.6-115.3 57.8 0-88.5 253-76.5 0-3.4-110.2c-0.7-19.4-0.5-39.8 0.5-58.8l-1.7 0c-6.4 19-13.1 39.4-20.2 58.8l-41.5 110.2-75.1 0L384.1 451.8z" /></svg>
